<svg width="16" height="16" viewBox="0 0 16 16" fill="none" xmlns="http://www.w3.org/2000/svg">
<path d="M7.66652 14.5C3.89986 14.5 0.833191 11.4333 0.833191 7.66668C0.833191 3.90001 3.89986 0.833344 7.66652 0.833344C11.4332 0.833344 14.4999 3.90001 14.4999 7.66668C14.4999 11.4333 11.4332 14.5 7.66652 14.5ZM7.66652 1.83334C4.44652 1.83334 1.83319 4.45334 1.83319 7.66668C1.83319 10.88 4.44652 13.5 7.66652 13.5C10.8865 13.5 13.4999 10.88 13.4999 7.66668C13.4999 4.45334 10.8865 1.83334 7.66652 1.83334Z" fill="white"/>
<path d="M14.6668 15.1667C14.5401 15.1667 14.4135 15.12 14.3135 15.02L12.9801 13.6867C12.7868 13.4933 12.7868 13.1733 12.9801 12.98C13.1735 12.7867 13.4935 12.7867 13.6868 12.98L15.0201 14.3133C15.2135 14.5067 15.2135 14.8267 15.0201 15.02C14.9201 15.12 14.7935 15.1667 14.6668 15.1667Z" fill="white"/>
</svg>
