<svg width="18" height="16" viewBox="0 0 18 16" fill="none" xmlns="http://www.w3.org/2000/svg">
<path d="M11.5402 0.152389C11.4601 0.0772252 11.3597 0.0271458 11.2514 0.00831686C11.1432 -0.010512 11.0317 0.00273175 10.9309 0.0464175C10.8301 0.0901032 10.7442 0.162323 10.6839 0.254186C10.6236 0.346048 10.5915 0.453541 10.5915 0.563429V3.02967C10.4302 3.03328 10.2422 3.04319 10.0326 3.06212C9.34081 3.12612 8.40289 3.29919 7.42938 3.74043C5.44538 4.63958 3.40641 6.61321 2.93317 10.7534C2.92028 10.8667 2.9421 10.9813 2.99575 11.0819C3.04939 11.1826 3.13232 11.2646 3.23359 11.3171C3.33485 11.3697 3.44967 11.3902 3.56285 11.376C3.67604 11.3619 3.78227 11.3137 3.86748 11.2379C5.82127 9.50086 7.65202 8.75314 8.97664 8.43495C9.50583 8.30491 10.0469 8.2294 10.5915 8.20959V10.7042C10.5915 10.8141 10.6236 10.9216 10.6839 11.0135C10.7442 11.1053 10.8301 11.1776 10.9309 11.2212C11.0317 11.2649 11.1432 11.2782 11.2514 11.2593C11.3597 11.2405 11.4601 11.1904 11.5402 11.1153L16.9487 6.04487C17.0049 5.99218 17.0497 5.92851 17.0803 5.85781C17.111 5.78711 17.1268 5.71088 17.1268 5.63383C17.1268 5.55678 17.111 5.48055 17.0803 5.40985C17.0497 5.33915 17.0049 5.27548 16.9487 5.22279L11.5402 0.152389ZM11.09 4.16544L11.099 4.16634H11.0999H11.0994C11.1777 4.17408 11.2568 4.16535 11.3315 4.14069C11.4062 4.11604 11.4749 4.07601 11.5332 4.0232C11.5914 3.97038 11.638 3.90594 11.6699 3.83403C11.7018 3.76212 11.7183 3.68433 11.7183 3.60567V1.86371L15.7394 5.63383L11.7183 9.40396V7.66199C11.7183 7.37805 11.5136 7.13918 11.2247 7.10312H11.2234L11.2216 7.10267L11.2171 7.10222L11.2045 7.10087C11.143 7.09482 11.0814 7.09031 11.0197 7.08735C10.8984 7.08104 10.7258 7.07743 10.5086 7.08464C9.9032 7.10976 9.30184 7.19521 8.71343 7.33974C7.50555 7.62954 5.96459 8.22807 4.30646 9.43686C4.9762 6.69659 6.49823 5.39947 7.89405 4.76668C8.72379 4.39079 9.53235 4.24026 10.1363 4.18437C10.4374 4.15643 10.6843 4.15282 10.8534 4.15553C10.9323 4.15665 11.0112 4.15996 11.09 4.16544ZM2.81689 0.676105C2.0698 0.676105 1.35332 0.972884 0.825048 1.50115C0.296779 2.02942 0 2.74591 0 3.49299V13.1831C0 13.9302 0.296779 14.6467 0.825048 15.1749C1.35332 15.7032 2.0698 16 2.81689 16H12.507C13.2541 16 13.9706 15.7032 14.4988 15.1749C15.0271 14.6467 15.3239 13.9302 15.3239 13.1831V12.169C15.3239 12.0196 15.2645 11.8763 15.1589 11.7706C15.0532 11.665 14.9099 11.6056 14.7605 11.6056C14.6111 11.6056 14.4678 11.665 14.3621 11.7706C14.2565 11.8763 14.1971 12.0196 14.1971 12.169V13.1831C14.1971 13.6313 14.0191 14.0612 13.7021 14.3782C13.3851 14.6952 12.9552 14.8732 12.507 14.8732H2.81689C2.36864 14.8732 1.93875 14.6952 1.62178 14.3782C1.30482 14.0612 1.12676 13.6313 1.12676 13.1831V3.49299C1.12676 3.04474 1.30482 2.61485 1.62178 2.29789C1.93875 1.98093 2.36864 1.80286 2.81689 1.80286H6.53518C6.6846 1.80286 6.8279 1.74351 6.93355 1.63785C7.03921 1.5322 7.09856 1.3889 7.09856 1.23948C7.09856 1.09007 7.03921 0.946769 6.93355 0.841115C6.8279 0.735461 6.6846 0.676105 6.53518 0.676105H2.81689Z" fill="white"/>
</svg>
